<?xml version="1.0" encoding="utf-8"?>
<!-- Generator: Adobe Illustrator 16.0.0, SVG Export Plug-In . SVG Version: 6.00 Build 0)  -->
<!DOCTYPE svg PUBLIC "-//W3C//DTD SVG 1.1//EN" "http://www.w3.org/Graphics/SVG/1.1/DTD/svg11.dtd">
<svg version="1.1" id="Layer_1" xmlns="http://www.w3.org/2000/svg" xmlns:xlink="http://www.w3.org/1999/xlink" x="0px" y="0px"
	 width="400px" height="400px" viewBox="0 0 400 400" enable-background="new 0 0 400 400" xml:space="preserve">
<polygon fill="#FFFFFF" stroke="#000000" stroke-width="2" stroke-miterlimit="10" points="103.52,179.958 39.256,145.756 
	50.292,89.161 129.427,131.277 "/>
<polygon fill="#FFFFFF" stroke="#000000" stroke-width="2" stroke-miterlimit="10" points="128.509,149.817 68.533,83.191 
	116.275,69.23 169.494,112.921 "/>
<polygon fill="#FFFFFF" stroke="#000000" stroke-width="2" stroke-miterlimit="10" points="187.686,122.8 142.54,122.8 
	147.096,89.161 187.686,73.313 "/>
<rect x="156.848" y="57.5" transform="matrix(0.669 0.7432 -0.7432 0.669 129.9707 -121.7303)" fill="#FFFFFF" stroke="#000000" stroke-width="2" stroke-miterlimit="10" width="89.645" height="55.146"/>
<polygon fill="#FFFFFF" stroke="#000000" stroke-width="2" stroke-miterlimit="10" points="334.119,334.01 274.141,267.385 
	297.436,246.414 353.348,300.827 "/>
<rect x="186.452" y="318.338" transform="matrix(0.1061 0.9944 -0.9944 0.1061 538.8488 68.5875)" fill="#FFFFFF" stroke="#000000" stroke-width="2" stroke-miterlimit="10" width="89.645" height="31.344"/>
<rect x="142.863" y="271.739" transform="matrix(-0.015 0.9999 -0.9999 -0.015 493.7337 120.1518)" fill="#FFFFFF" stroke="#000000" stroke-width="2" stroke-miterlimit="10" width="89.645" height="63.054"/>
<rect x="231.273" y="37.76" fill="#FFFFFF" stroke="#000000" stroke-width="2" stroke-miterlimit="10" width="36.629" height="62.94"/>
<rect x="237.025" y="25.189" transform="matrix(0.9023 0.431 -0.431 0.9023 57.0759 -106.3885)" fill="#FFFFFF" stroke="#000000" stroke-width="2" stroke-miterlimit="10" width="52.58" height="95.142"/>
<rect x="289.482" y="83.584" transform="matrix(0.9023 0.431 -0.431 0.9023 87.3719 -123.2991)" fill="#FFFFFF" stroke="#000000" stroke-width="2" stroke-miterlimit="10" width="52.578" height="95.142"/>
<rect x="58.912" y="217.713" transform="matrix(0.9023 0.431 -0.431 0.9023 122.6653 -10.8163)" fill="#FFFFFF" stroke="#000000" stroke-width="2" stroke-miterlimit="10" width="52.579" height="95.142"/>
<polygon fill="#FFFFFF" stroke="#000000" stroke-width="2" stroke-miterlimit="10" points="88.418,257.975 40.974,235.313 
	99.44,157.8 129.427,172.125 "/>
<rect x="124.323" y="255.694" transform="matrix(0.9023 0.431 -0.431 0.9023 145.4233 -35.3011)" fill="#FFFFFF" stroke="#000000" stroke-width="2" stroke-miterlimit="10" width="52.58" height="95.143"/>
<rect x="295.357" y="164.099" transform="matrix(1 0.0037 -0.0037 1 0.7845 -1.1874)" fill="#FFFFFF" stroke="#000000" stroke-width="2" stroke-miterlimit="10" width="52.578" height="95.143"/>
<rect x="263.491" y="91.229" transform="matrix(0.7921 -0.6104 0.6104 0.7921 -24.4778 205.7337)" fill="#FFFFFF" stroke="#000000" stroke-width="2" stroke-miterlimit="10" width="52.579" height="95.142"/>
<polygon fill="#FFFFFF" stroke="#000000" stroke-width="2" stroke-miterlimit="10" points="165.112,286.918 123.464,319.011 
	88.493,267.826 107.04,211.555 "/>
<rect x="231.391" y="235.306" transform="matrix(0.7921 -0.6104 0.6104 0.7921 -119.0934 216.0934)" fill="#FFFFFF" stroke="#000000" stroke-width="2" stroke-miterlimit="10" width="52.579" height="95.142"/>
<circle fill="#FFFFFF" stroke="#000000" stroke-miterlimit="10" cx="200" cy="191.001" r="100"/>
</svg>
