<?xml version="1.0" encoding="utf-8"?>
<!-- Generator: Adobe Illustrator 16.0.0, SVG Export Plug-In . SVG Version: 6.00 Build 0)  -->
<!DOCTYPE svg PUBLIC "-//W3C//DTD SVG 1.1//EN" "http://www.w3.org/Graphics/SVG/1.1/DTD/svg11.dtd">
<svg version="1.1" xmlns="http://www.w3.org/2000/svg" xmlns:xlink="http://www.w3.org/1999/xlink" x="0px" y="0px" width="400px"
	 height="400px" viewBox="0 0 400 400" enable-background="new 0 0 400 400" xml:space="preserve">
<g id="Layer_2">
	<polygon fill="#FFFFFF" stroke="#000000" stroke-miterlimit="10" points="122.381,176.082 -25.255,97.51 -26.047,16.614 
		155.756,113.37 	"/>
	<polygon fill="#FFFFFF" stroke="#000000" stroke-miterlimit="10" points="142.564,151.74 65.226,65.829 140.706,35.297 
		212.536,88.75 	"/>
	<polygon fill="#FFFFFF" stroke="#000000" stroke-miterlimit="10" points="190.355,129.921 153.895,129.921 157.575,102.754 
		190.355,89.955 	"/>
	
		<rect x="149.295" y="61.27" transform="matrix(0.6691 0.7432 -0.7432 0.6691 146.5303 -129.0624)" fill="#FFFFFF" stroke="#000000" stroke-miterlimit="10" width="137.782" height="77.468"/>
	<polygon fill="#FFFFFF" stroke="#000000" stroke-miterlimit="10" points="324.148,369.125 233.236,268.139 275.188,230.371 
		361.029,311.865 	"/>
	
		<rect x="178.372" y="306.967" transform="matrix(0.1061 0.9944 -0.9944 0.1061 529.8672 57.6292)" fill="#FFFFFF" stroke="#000000" stroke-miterlimit="10" width="109.015" height="33.134"/>
	
		<rect x="138.503" y="265.625" transform="matrix(-0.015 0.9999 -0.9999 -0.015 484.0321 105.3554)" fill="#FFFFFF" stroke="#000000" stroke-miterlimit="10" width="103.24" height="50.923"/>
	<rect x="225.557" y="61.242" fill="#FFFFFF" stroke="#000000" stroke-miterlimit="10" width="29.582" height="50.831"/>
	
		<rect x="198.497" y="-16.923" transform="matrix(0.9023 0.431 -0.431 0.9023 46.1319 -99.7904)" fill="#FFFFFF" stroke="#000000" stroke-miterlimit="10" width="89.581" height="137.667"/>
	
		<rect x="285.332" y="41.916" transform="matrix(0.9023 0.431 -0.431 0.9023 77.3071 -121.3479)" fill="#FFFFFF" stroke="#000000" stroke-miterlimit="10" width="42.193" height="136.003"/>
	
		<rect x="72.017" y="205.339" transform="matrix(0.9023 0.431 -0.431 0.9023 128.5115 -15.1514)" fill="#FFFFFF" stroke="#000000" stroke-miterlimit="10" width="51.349" height="141.359"/>
	<polygon fill="#FFFFFF" stroke="#000000" stroke-miterlimit="10" points="13.546,253.474 -8.815,171.134 134.1,164.855 
		148.234,216.897 	"/>
	
		<rect x="106.392" y="229.817" transform="matrix(0.9023 0.431 -0.431 0.9023 150.6066 -26.2837)" fill="#FFFFFF" stroke="#000000" stroke-miterlimit="10" width="53.832" height="178.82"/>
	
		<rect x="244.399" y="173.578" transform="matrix(-0.4632 0.8862 -0.8862 -0.4632 632.9065 40.6519)" fill="#FFFFFF" stroke="#000000" stroke-miterlimit="10" width="119.487" height="76.839"/>
	
		<rect x="74.989" y="123.769" transform="matrix(0.7921 -0.6104 0.6104 0.7921 -79.132 101.0441)" fill="#FFFFFF" stroke="#000000" stroke-miterlimit="10" width="67.559" height="85.84"/>
	<polygon fill="#FFFFFF" stroke="#000000" stroke-miterlimit="10" points="172.125,262.465 108.344,311.613 82.131,268.711 
		125.225,201.602 	"/>
	
		<rect x="203.201" y="228.429" transform="matrix(0.7921 -0.6104 0.6104 0.7921 -116.229 202.1208)" fill="#FFFFFF" stroke="#000000" stroke-miterlimit="10" width="70.819" height="86.524"/>
</g>
<g id="Layer_1">
	<circle fill="#FFFFFF" stroke="#000000" stroke-width="2" stroke-miterlimit="10" cx="200" cy="200.001" r="100"/>
</g>
</svg>
